# xmcd
#
# Track frame offsets:
# 150
# 39762
# 78150
# 129050
#
# Disc length: 2212 seconds
#
# Revision: 0
# Processed by: cddbd v1.5.1PL2 Copyright (c) Steve Scherf et al.
# Submitted via: Audion 3.0.2 (http://www.panic.com/audion/)
#
DISCID=1b08a204
DTITLE=>=¡¨±?a,õö îÚ âç,yun¶-®OE°M - ó´î?âflç]èµêe
DYEAR=1900
DGENRE=
TTITLE0=èµêe
TTITLE1=ì¥ñ[
TTITLE2=ç?üd
TTITLE3=¶^Ø?
EXTD=
EXTT0=
EXTT1=
EXTT2=
EXTT3=
PLAYORDER=
